# Blender 4.5.3 LTS
# www.blender.org
o Cube
v -1.000000 0.000000 0.000000
v 0.000000 0.000000 -1.000000
v 1.000000 0.000000 0.000000
v 0.000000 0.000000 1.000000
v 0.000000 -1.000000 0.000000
v 0.000000 1.000000 0.000000
vn 0.5774 0.5774 -0.5774
vn 0.5774 -0.5774 -0.5774
vn 0.5774 0.5774 0.5774
vn 0.5774 -0.5774 0.5774
vn -0.5774 0.5774 -0.5774
vn -0.5774 -0.5774 -0.5774
vn -0.5774 0.5774 0.5774
vn -0.5774 -0.5774 0.5774
vt 0.0 0.5
vt 0.0 0.0
vt 0.5 0.0
vt 0.5 1.0
vt 0.0 1.0
vt 0.5 0.5
vt 1.0 0.5
vt 1.0 0.0
vt 1.0 1.0
s 0
f 1/1/1 4/2/1 5/3/1
f 1/1/2 6/4/2 4/5/2
f 1/1/3 5/3/3 2/6/3
f 1/1/4 2/6/4 6/4/4
f 3/7/5 5/3/5 4/8/5
f 3/7/6 4/9/6 6/4/6
f 2/6/7 5/3/7 3/7/7
f 2/6/8 3/7/8 6/4/8
